{"title":"Race With The Devil 1975 XviD-NvadR","uid":7079095,"size":733808686,"categoryP":"video","categoryS":"movies","magnet":"?xt=urn:btih:4b9068ccc37033d0325cdc198d78895b38bbd82d&amp;dn=Race+With+The+Devil+1975+XviD-NvadR&amp;tr=udp%3A%2F%2Ftracker.openbittorrent.com%3A80&amp;tr=udp%3A%2F%2Fopen.demonii.com%3A1337&amp;tr=udp%3A%2F%2Ftracker.coppersurfer.tk%3A6969&amp;tr=udp%3A%2F%2Fexodus.desync.com%3A6969","seeders":2,"leechers":0,"uploader":"ReconRedneck2","files":-1,"time":1330962110,"description":"Race.With.The.Devil.1975.XviD-NvadR &lt;a href=&quot;\nhttp://www.imdb.com/title/tt0073600/&quot; rel=&quot;nofollow&quot; target=&quot;_NEW&quot;&gt;\nhttp://www.imdb.com/title/tt0073600/&lt;/a&gt;\n\nFrank and Roger and their wives take off for \nColorado in a recreational vehicle, looking \nforward to some skiing and dirt biking. While \ncamping en route, they witness a satanic ritual \nsacrifice, but the local sheriff finds no evidence \nto support their claims and urges them to continue \non their vacation. On the way, however, they find \nthemselves repeatedly attacked by cult members, and \nthey take measures to defend themselves. \n\n\n----------- SCREENSHOTS ----------- &lt;a href=&quot;\nhttp://www.uploadup.com/di-JZAD.jpg&quot; rel=&quot;nofollow&quot; target=&quot;_NEW&quot;&gt;\nhttp://www.uploadup.com/di-JZAD.jpg&lt;/a&gt;\n &lt;a href=&quot;\nhttp://www.uploadup.com/di-XB1D.jpg&quot; rel=&quot;nofollow&quot; target=&quot;_NEW&quot;&gt;\nhttp://www.uploadup.com/di-XB1D.jpg&lt;/a&gt;\n &lt;a href=&quot;\nhttp://www.uploadup.com/di-T11N.jpg&quot; rel=&quot;nofollow&quot; target=&quot;_NEW&quot;&gt;\nhttp://www.uploadup.com/di-T11N.jpg&lt;/a&gt;\n &lt;a href=&quot;\nhttp://www.uploadup.com/di-MBUK.jpg&quot; rel=&quot;nofollow&quot; target=&quot;_NEW&quot;&gt;\nhttp://www.uploadup.com/di-MBUK.jpg&lt;/a&gt;\n &lt;a href=&quot;\nhttp://www.uploadup.com/di-5D3K.jpg&quot; rel=&quot;nofollow&quot; target=&quot;_NEW&quot;&gt;\nhttp://www.uploadup.com/di-5D3K.jpg&lt;/a&gt;\n &lt;a href=&quot;\nhttp://www.uploadup.com/di-X8AV.jpg&quot; rel=&quot;nofollow&quot; target=&quot;_NEW&quot;&gt;\nhttp://www.uploadup.com/di-X8AV.jpg&lt;/a&gt;\n-----------------------------------\n\nGeneral\n\nComplete name                    : Race.With.The.Devil.1975.XviD-NvadR\nFormat        [/img]             : AVI\nFormat/Info                      : Audio Video Interleave\nFile size                        : 700 MiB\nDuration                         : 1h 28mn\nOverall bit rate                 : 1 108 Kbps\nWriting application              : VirtualDubMod 1.5.10.2 (build 2542/release)\nWriting library                  : VirtualDubMod build 2542/release\n\nVideo\n\nFormat                           : MPEG-4 Visual\nFormat profile                   : Advanced Simple@L5\nFormat settings, BVOP            : 2\nFormat settings, QPel            : No\nFormat settings, GMC             : No warppoints\nFormat settings, Matrix          : Default (H.263)\nMuxing mode                      : Packed bitstream\nCodec ID                         : XVID\nCodec ID/Hint                    : XviD\nDuration                         : 1h 28mn\nBit rate                         : 987 Kbps\nWidth                            : 640 pixels\nHeight                           : 360 pixels\nDisplay aspect ratio             : 16:9\nFrame rate                       : 23.976 fps\nColor space                      : YUV\nChroma subsampling               : 4:2:0\nBit depth                        : 8 bits\nScan type                        : Progressive\nCompression mode                 : Lossy\nBits/(Pixel*Frame)               : 0.179\nStream size                      : 623 MiB (89%)\nWriting library                  : XviD 64\n\nAudio\n\nAudio Language                   : English\nFormat                           : AC-3\nFormat/Info                      : Audio Coding 3\nMode extension                   : CM (complete main)\nCodec ID                         : 2000\nDuration                         : 1h 28mn\nBit rate mode                    : Constant\nBit rate                         : 112 Kbps\nChannel(s)                       : 2 channels\nChannel positions                : Front: L R\nSampling rate                    : 48.0 KHz\nBit depth                        : 16 bits\nCompression mode                 : Lossy\nStream size                      : 70.7 MiB (10%)\nAlignment                        : Aligned on interleaves\nInterleave, duration             : 42 ms (1.00 video frame)\nInterleave, preload duration     : 512 ms\n\nNO SUBTITLES INCLUDED\n\n------------- Real Time Stats -------------- &lt;a href=&quot;\nhttp://torrent-stats.info/dc19/17f52e24a.png&quot; rel=&quot;nofollow&quot; target=&quot;_NEW&quot;&gt;\nhttp://torrent-stats.info/dc19/17f52e24a.png&lt;/a&gt;","torrent":{"xt":"urn:btih:4b9068ccc37033d0325cdc198d78895b38bbd82d","amp;dn":"Race+With+The+Devil+1975+XviD-NvadR","amp;tr":["udp%3A%2F%2Ftracker.openbittorrent.com%3A80","udp%3A%2F%2Fopen.demonii.com%3A1337","udp%3A%2F%2Ftracker.coppersurfer.tk%3A6969","udp%3A%2F%2Fexodus.desync.com%3A6969"],"infoHash":"4b9068ccc37033d0325cdc198d78895b38bbd82d","infoHashBuffer":{"type":"Buffer","data":[75,144,104,204,195,112,51,208,50,92,220,25,141,120,137,91,56,187,216,45]},"announce":[],"urlList":[]}}